<?xml version="1.0" encoding="utf-8"?>
<!-- Generator: Adobe Illustrator 25.2.3, SVG Export Plug-In . SVG Version: 6.00 Build 0)  -->
<svg version="1.1" id="Layer_1" xmlns="http://www.w3.org/2000/svg" xmlns:xlink="http://www.w3.org/1999/xlink" x="0px" y="0px"
	 viewBox="0 0 500 500" style="enable-background:new 0 0 500 500;" xml:space="preserve">
<style type="text/css">
	.st0{fill:#E44D26;}
	.st1{fill:#F16529;}
	.st2{fill:#EBEBEB;}
	.st3{fill:#FFFFFF;}
	.st4{fill:#1F72B5;}
	.st5{fill:#51A3DC;}
	.st6{fill:#CECECE;}
</style>
<g id="XMLID_3_">
	<polygon id="XMLID_15_" class="st0" points="30.02,395.41 2.32,84.43 306.85,84.43 279.14,395.29 154.34,429.92 	"/>
	<polygon id="XMLID_14_" class="st1" points="154.58,403.53 255.38,375.59 279.14,109.87 154.58,109.87 	"/>
	<polygon id="XMLID_13_" class="st2" points="154.58,225.23 104.07,225.23 100.6,186.18 154.58,186.18 154.58,148.08 154.46,148.08 
		58.93,148.08 59.88,158.24 69.2,263.33 154.58,263.33 	"/>
	<polygon id="XMLID_12_" class="st2" points="154.58,324.23 154.46,324.35 111.95,312.77 109.2,282.44 88.54,282.44 70.99,282.44 
		76.24,342.27 154.46,364 154.58,363.88 	"/>
	<path id="XMLID_9_" d="M10.62,10h19.35v19.11h17.67V10h19.35v57.92H47.64V48.45H29.97v19.47H10.62V10L10.62,10z"/>
	<path id="XMLID_8_" d="M92.55,29.23H75.47V10h53.5v19.23h-17.08v38.69H92.55V29.23L92.55,29.23z"/>
	<path id="XMLID_7_" d="M137.57,10h20.18l12.42,20.42L182.59,10h20.18v57.92h-19.23V39.26l-13.38,20.66h-0.36l-13.38-20.66v28.78
		h-18.99V10H137.57z"/>
	<path id="XMLID_6_" d="M212.45,10h19.35v38.81h27.23v19.11h-46.57V10z"/>
	<polygon id="XMLID_5_" class="st3" points="154.46,225.23 154.46,263.33 201.4,263.33 196.98,312.77 154.46,324.23 154.46,364 
		232.57,342.27 233.16,335.82 242.12,235.5 243.08,225.23 232.81,225.23 	"/>
	<polygon id="XMLID_4_" class="st3" points="154.46,148.08 154.46,171.73 154.46,186.06 154.46,186.18 246.42,186.18 246.42,186.18 
		246.54,186.18 247.37,177.58 249.05,158.24 250,148.08 	"/>
</g>
<g id="XMLID_1_">
	<polygon id="XMLID_11_" class="st4" points="229.58,463.77 202.9,164.35 496.11,164.35 469.44,463.65 349.28,497 	"/>
	<polygon id="XMLID_10_" class="st5" points="349.51,471.59 446.56,444.68 469.44,188.84 349.51,188.84 	"/>
	<polygon id="XMLID_35_" class="st2" points="254.18,257.94 250.62,223.33 448.4,223.33 446.1,263.46 362.5,300.37 442.65,300.37 
		434.02,414.21 353.19,435.94 269.36,415.59 264.19,357.87 301.21,357.87 303.28,388.34 351.81,397.42 396.65,383.62 398.72,334.87 
		260.97,334.87 258.44,298.65 349.51,258.75 	"/>
	<g id="XMLID_2_">
		<polygon id="XMLID_39_" class="st6" points="258.44,298.65 260.97,334.87 349.51,334.87 349.51,258.75 		"/>
		<polygon id="XMLID_40_" class="st6" points="303.28,388.34 301.21,357.87 264.19,357.87 269.36,415.59 349.51,435.02 
			349.51,396.96 		"/>
		<polygon id="XMLID_41_" class="st6" points="250.62,223.33 254.18,257.94 349.51,258.75 349.51,223.33 		"/>
	</g>
	<g id="XMLID_36_">
		<polygon id="XMLID_34_" points="427.1,108.85 427.1,95.05 371.91,95.05 371.91,127.25 409.86,127.25 409.86,137.59 370.76,137.59 
			370.76,150.24 425.95,150.24 425.95,116.9 386.86,116.9 386.86,108.85 		"/>
		<polygon id="XMLID_38_" points="327.07,127.59 327.07,137.59 366.16,137.59 366.16,150.24 310.97,150.24 310.97,117.24 
			310.97,95.05 365.01,95.05 365.01,108.85 327.07,108.85 		"/>
		<polygon id="XMLID_37_" points="488.05,108.85 488.05,95.05 432.85,95.05 432.85,127.25 470.8,127.25 470.8,137.59 431.7,137.59 
			431.7,150.24 486.9,150.24 486.9,116.9 447.8,116.9 447.8,108.85 		"/>
	</g>
</g>
</svg>
